{"title":"Whitesnake Made in Japan 2011 1080p","uid":8846463,"size":8854990049,"categoryP":"video","categoryS":"music_videos","magnet":"?xt=urn:btih:5c8075d2371f41c2ea07fb7dc7a266423413a8be&amp;dn=Whitesnake+Made+in+Japan+2011+1080p&amp;tr=udp%3A%2F%2Ftracker.openbittorrent.com%3A80&amp;tr=udp%3A%2F%2Fopen.demonii.com%3A1337&amp;tr=udp%3A%2F%2Ftracker.coppersurfer.tk%3A6969&amp;tr=udp%3A%2F%2Fexodus.desync.com%3A6969","seeders":1,"leechers":0,"uploader":"nircefey","files":-1,"time":1377406765,"description":"General\nFormat : Matroska\nFormat version : Version 2\nFile size : 8.25 GiB\nDuration : 1h 13mn\nOverall bit rate : 16.0 Mbps\nMovie name : WSMIJ.Title4.BlurayRip\nEncoded date : UTC 2013-08-21 19:24:57\nWriting application : DVDFab\nWriting library : libebml v0.7.8 + libmatroska v0.8.1\nVideo #1\nID : 1\nFormat : AVC\nFormat/Info : Advanced Video Codec\nFormat profile : &lt;a class=&quot;__cf_email__&quot; href=&quot;/cdn-cgi/l/email-protection&quot; data-cfemail=&quot;b0f8d9d7d8f0fc849e81&quot;&gt;[email&amp;#160;protected]&lt;/a&gt;&lt;script cf-hash='f9e31' type=&quot;text/javascript&quot;&gt;\n/* &lt;![CDATA[ */!function(){try{var t=&quot;currentScript&quot;in document?document.currentScript:function(){for(var t=document.getElementsByTagName(&quot;script&quot;),e=t.length;e--;)if(t[e].getAttribute(&quot;cf-hash&quot;))return t[e]}();if(t&amp;&amp;t.previousSibling){var e,r,n,i,c=t.previousSibling,a=c.getAttribute(&quot;data-cfemail&quot;);if(a){for(e=&quot;&quot;,r=parseInt(a.substr(0,2),16),n=2;a.length-n;n+=2)i=parseInt(a.substr(n,2),16)^r,e+=String.fromCharCode(i);e=document.createTextNode(e),c.parentNode.replaceChild(e,c)}}}catch(u){}}();/* ]]&gt; */&lt;/script&gt;\nFormat settings, CABAC : Yes\nFormat settings, ReFrames : 2 frames\nCodec ID : V_MPEG4/ISO/AVC\nDuration : 1h 13mn\nBit rate : 15.2 Mbps\nWidth : 1 920 pixels\nHeight : 1 080 pixels\nDisplay aspect ratio : 16:9\nFrame rate mode : Constant\nFrame rate : 29.970 fps\nColor space : YUV\nChroma subsampling : 4:2:0\nBit depth : 8 bits\nScan type : Progressive\nBits/(Pixel*Frame) : 0.245\nStream size : 7.85 GiB (95%)\nWriting library : x264 core\nDefault : Yes\nForced : No\nColor primaries : BT.709\nTransfer characteristics : BT.709\nMatrix coefficients : BT.709\nAudio #2\nID : 2\nFormat : AC-3\nFormat/Info : Audio Coding 3\nMode extension : CM (complete main)\nFormat settings, Endianness : Big\nCodec ID : A_AC3\nDuration : 1h 13mn\nBit rate mode : Constant\nBit rate : 448 Kbps\nChannel(s) : 6 channels\nChannel positions : Front: L C R, Side: L R, LFE\nSampling rate : 48.0 KHz\nBit depth : 16 bits\nCompression mode : Lossy\nStream size : 237 MiB (3%)\nLanguage : English\nDefault : Yes\nForced : No\nMenu\n00:00:00.000 : en:(01)00:00:00:000\n00:06:31.324 : en:(02)00:06:31:324\n00:11:14.573 : en:(03)00:11:14:573\n00:15:40.439 : en:(04)00:15:40:439\n00:20:06.872 : en:(05)00:20:06:872\n00:26:56.247 : en:(06)00:26:56:247\n00:34:17.789 : en:(07)00:34:17:789\n00:39:58.829 : en:(08)00:39:58:829\n00:44:51.622 : en:(09)00:44:51:622\n00:52:10.227 : en:(10)00:52:10:227\n00:57:12.529 : en:(11)00:57:12:529\n01:02:58.040 : en:(12)01:02:58:040\n01:12:09.291 : en:(13)01:12:09:291\n01:13:51.860 : en:(14)01:13:51:860","torrent":{"xt":"urn:btih:5c8075d2371f41c2ea07fb7dc7a266423413a8be","amp;dn":"Whitesnake+Made+in+Japan+2011+1080p","amp;tr":["udp%3A%2F%2Ftracker.openbittorrent.com%3A80","udp%3A%2F%2Fopen.demonii.com%3A1337","udp%3A%2F%2Ftracker.coppersurfer.tk%3A6969","udp%3A%2F%2Fexodus.desync.com%3A6969"],"infoHash":"5c8075d2371f41c2ea07fb7dc7a266423413a8be","infoHashBuffer":{"type":"Buffer","data":[92,128,117,210,55,31,65,194,234,7,251,125,199,162,102,66,52,19,168,190]},"announce":[],"urlList":[]}}